<?xml version="1.0" encoding="UTF-8"?>
<svg xmlns="http://www.w3.org/2000/svg" xmlns:xlink="http://www.w3.org/1999/xlink" width="141.73pt" height="58.18pt" viewBox="0 0 141.73 58.18" version="1.1">
<defs>
<clipPath id="clip1">
  <path d="M 0 0 L 141.730469 0 L 141.730469 58.179688 L 0 58.179688 Z M 0 0 "/>
</clipPath>
</defs>
<g id="surface1">
<g clip-path="url(#clip1)" clip-rule="nonzero">
<path style=" stroke:none;fill-rule:nonzero;fill:rgb(94.180298%,24.787903%,22.923279%);fill-opacity:1;" d="M 26.601563 22.144531 L 26.601563 12.421875 C 26.601563 9.023438 29.355469 6.210938 32.8125 6.210938 C 35.332031 6.210938 37.617188 7.792969 38.613281 10.136719 Z M 71.480469 13.535156 C 71.480469 9.492188 73.824219 6.5625 77.632813 6.5625 C 81.382813 6.5625 83.84375 9.375 83.84375 13.417969 L 83.84375 29.527344 C 83.84375 33.277344 82.320313 36.792969 77.339844 36.792969 L 75.757813 36.792969 L 75.757813 43.238281 L 77.339844 43.238281 C 81.96875 43.238281 84.488281 41.597656 88.414063 37.671875 L 115.074219 10.957031 L 115.074219 34.214844 C 115.074219 40.777344 118.941406 43.53125 123.335938 43.53125 C 126.324219 43.53125 128.140625 42.476563 130.894531 39.722656 L 141.730469 28.882813 L 137.277344 24.664063 L 126.324219 35.503906 C 124.859375 36.910156 124.214844 37.144531 123.628906 37.144531 C 122.222656 37.144531 121.34375 36.089844 121.34375 34.566406 L 121.34375 3.867188 C 121.34375 1.875 120.347656 0.292969 118.238281 0.292969 C 117.359375 0.292969 116.597656 0.585938 115.074219 2.109375 L 90.113281 27.125 L 90.113281 12.421875 C 90.113281 5.566406 84.488281 0 77.632813 0 C 73.882813 0 71.246094 1.230469 67.496094 4.980469 L 38.203125 34.273438 C 36.035156 36.441406 34.804688 37.144531 32.695313 37.144531 C 29.414063 37.144531 26.601563 34.390625 26.601563 30.992188 L 44.234375 13.300781 C 44.941406 12.597656 45.289063 11.601563 45.171875 10.605469 C 44.234375 4.570313 38.964844 0 32.8125 0 C 29.414063 0 26.601563 0.9375 22.5 5.039063 L 0 27.59375 L 4.453125 31.988281 L 20.332031 16.113281 L 20.332031 30.113281 C 20.332031 38.316406 25.78125 43.355469 32.8125 43.355469 C 36.855469 43.355469 39.257813 42.066406 42.832031 38.492188 L 65.210938 16.113281 L 65.210938 58.179688 L 71.480469 58.179688 L 71.480469 13.535156 "/>
</g>
</g>
</svg>
