<svg xmlns="http://www.w3.org/2000/svg" height="800" width="1200" viewBox="-45 -48.06425 390 288.3855"><path d="M204.075 55.166H300v46.744h-48.762v4.102H300v43.991h-95.925V55.166m-52.653 49.788V55.166h48.542v94.837h-32.558v-50.41l13.737 13.74 2.907-2.903-19.063-18.98-13.565 13.504" fill="#00adef" fill-rule="evenodd"/><path d="M148.658 113.333l14.643-14.473v51.143h-29.527V98.815l14.884 14.518" fill="#00adef" fill-rule="evenodd"/><path d="M99.644 55.166h47.672v51.4L132.132 91.45l-19.06 18.98 2.9 2.903 13.696-13.695v50.365H99.644V55.166m-99.147 0H95.54v46.744H48.37v4.102h47.17v43.991H.497V55.166M20.035 6.865c-8.169 0-13.737 5.779-13.737 14.05 0 8.169 5.67 13.84 13.11 13.84 4.42 0 8.376-1.563 12.022-4.686v6.817c-3.28 2.34-7.08 3.487-11.55 3.487-5.728 0-10.618-1.928-14.26-5.514C1.975 31.267 0 26.276 0 20.864c0-5.463 1.976-10.356 5.673-13.999 3.694-3.64 8.533-5.565 14.1-5.565 4.473 0 8.377 1.298 12.017 3.85l-.316 6.088c-3.43-2.913-7.228-4.373-11.439-4.373m48.59 9.055c-.312 1.77-.889 3.436-1.718 5.148l-9.73 19.825-9.728-20.243a28.402 28.402 0 01-1.823-4.73c-.048 1.77-.31 3.484-.673 5.148l-4.01 18.317h-5.567L44.173.727l10.973 23.362c.313.676.992 2.34 2.03 5.046.73-2.078 1.562-3.748 2.136-5.046L70.031.727l8.998 38.658h-5.616L69.3 21.02c-.156-.682-.315-2.346-.676-5.1m33.662-9.055c-8.169 0-13.737 5.779-13.737 14.05 0 8.169 5.674 13.84 13.113 13.84 4.42 0 8.376-1.563 12.016-4.686v6.817c-3.277 2.34-7.076 3.487-11.551 3.487-5.724 0-10.61-1.928-14.254-5.514-3.643-3.592-5.622-8.583-5.622-13.995 0-5.463 1.98-10.356 5.67-13.999 3.698-3.64 8.536-5.565 14.1-5.565 4.479 0 8.38 1.298 12.023 3.85l-.318 6.088c-3.43-2.913-7.226-4.373-11.44-4.373m33.074-4.679h6.038v31.787h13.526v5.412h-19.563V2.186m26.999-.729c1.922 0 3.436 1.46 3.436 3.435 0 1.973-1.514 3.484-3.436 3.484-1.925 0-3.487-1.613-3.487-3.484 0-1.874 1.562-3.435 3.487-3.435zm-2.754 13.839h5.516v24.087h-5.516zm13.368 24.089v-24.09h5.205v3.956c2.183-3.33 4.832-4.841 8.685-4.841 3.748 0 6.193 1.561 7.493 4.787 2.5-3.277 5.199-4.787 8.947-4.787 3.229 0 5.62 1.25 6.917 3.439.784 1.297.889 2.96.889 4.988v16.548h-5.517V27.003c0-5.307-.517-7.908-4.68-7.908-4.783 0-6.036 3.12-6.036 9.313v10.977h-5.568V27.003c0-5.463-.988-7.908-4.784-7.908-2.187 0-4.058 1.036-5.1 2.76-.94 1.559-.94 3.586-.94 6.553v10.977h-5.511m48.539-37.928c1.925 0 3.436 1.46 3.436 3.435 0 1.973-1.51 3.484-3.436 3.484-1.925 0-3.484-1.613-3.484-3.484 0-1.874 1.559-3.435 3.484-3.435zm-2.757 13.839h5.516v24.087h-5.516zm14.671 4.834h-4.213v-4.834h4.213V6.193h5.517v9.103h4.214v4.835h-4.214v19.254h-5.517V20.131m18.42 8.016c.254 4.526 2.808 7.178 6.814 7.178 3.538 0 5.772-1.406 7.544-4.73l4.628 2.597c-2.706 4.835-6.658 7.181-12.067 7.181-7.7 0-12.644-5.1-12.644-12.96 0-7.486 5.15-12.95 12.644-12.95 7.745 0 12.332 4.632 12.332 12.642v1.042zm7.021-9.001c-3.589 0-5.775 1.718-6.658 5.307h13.16c-.414-3.487-2.706-5.307-6.502-5.307M299.496 0v39.385h-5.51v-3.123c-1.977 2.757-4.577 4.111-7.96 4.111-6.711 0-10.98-4.841-10.98-13.058 0-7.755 4.479-12.851 10.825-12.851 3.955 0 6.82 1.715 8.115 4.787V0zm-11.961 19.356c-4.163 0-6.71 3.016-6.71 8.112 0 5.154 2.445 8.016 6.608 8.016 3.85 0 6.709-3.123 6.709-8.223 0-5.046-2.5-7.905-6.607-7.905M25.017 180.56l-8.51-13.186h7.624l3.257 6.237c.17.338.577.947.813 2.069.24-1.087.647-1.696.848-2.069l3.22-6.237h7.598l-8.479 13.186v11.053h-6.371V180.56m20.749 11.697c-5.323 0-9.326-4.032-9.326-8.953 0-4.947 4.035-8.947 9.326-8.947 5.288 0 9.355 4 9.355 8.947 0 4.953-4.067 8.953-9.355 8.953zm0-12.985c-2.17 0-3.496 1.562-3.496 4.032 0 2.48 1.326 4 3.496 4 2.168 0 3.49-1.52 3.49-4 0-2.47-1.322-4.032-3.49-4.032m29.9 4.172c0 2.607-.07 4.68-2.001 6.607-1.492 1.495-3.695 2.206-6.643 2.206-2.951 0-5.122-.71-6.68-2.206-1.862-1.794-1.964-3.894-1.964-6.607V174.9h5.626v8.918c0 2.61.71 3.962 2.948 3.962 2.234 0 2.952-1.352 2.952-3.962V174.9h5.762v8.545m4.268-8.545h5.562v3.932c1.09-2.78 3.155-4.309 5.727-4.309.408 0 .95.035 1.664.105l-.577 5.358c-.71-.207-1.354-.338-2.033-.338-2.78 0-4.475 1.693-4.475 5.052v6.913h-5.868V174.9" fill="#00adef" fill-rule="evenodd"/><path d="M111.549 191.613h6.68v-24.24h-6.68z" fill="#00adef"/><path d="M127.045 173.101h-5.393v-5.727h17.425v5.727h-5.421v18.512h-6.61v-18.512m31.168 18.512v-24.24h7.39c3.054 0 5.458.036 7.357 1.253 2.139 1.355 3.395 3.863 3.395 6.987 0 3.22-1.19 5.626-3.357 6.913-1.666.982-3.528 1.09-5.8 1.09h-2.783v7.997zm7.461-13.323c2.814 0 4.271-.545 4.271-2.884 0-2.34-1.53-2.811-4.204-2.811h-1.326v5.695h1.26m30.916 13.288h-5.425v-2.677c-1.555 2.34-3.356 3.356-5.998 3.356-4.373 0-7.354-3.458-7.354-8.988 0-5.419 2.98-8.912 7.723-8.912 2.509 0 4.271 1.017 5.597 3.286V174.9h5.457zm-9.084-12.577c-2.41 0-3.863 1.664-3.863 4.236 0 2.617 1.453 4.207 3.863 4.207 2.403 0 3.898-1.59 3.898-4.207 0-2.572-1.495-4.236-3.898-4.236m13.559-4.101h5.561v3.932c1.081-2.78 3.15-4.309 5.725-4.309.408 0 .953.035 1.667.105l-.58 5.358c-.714-.207-1.358-.338-2.034-.338-2.78 0-4.475 1.693-4.475 5.052v6.913h-5.864V174.9m16.035 4.171h-2.508V174.9h2.508v-4.982h5.794v4.982h2.512v4.172h-2.512v12.542h-5.794v-12.542m11.053-4.172h5.39v3.39c1.594-2.747 3.493-3.933 6.407-3.933 2.17 0 3.933.746 4.946 2.034 1.122 1.424 1.224 3.257 1.224 5.664v9.558h-5.9v-8.95c0-2.607-.78-3.83-2.747-3.83-2.642 0-3.522 2-3.522 5.762v7.018h-5.798V174.9m26.745 9.526c.038 2.61 1.393 4.035 3.767 4.035 1.795 0 3.019-.682 3.66-2.002l4.442 1.798c-1.055 2.505-3.802 4-7.764 4-6.104 0-9.664-3.764-9.664-8.813 0-5.052 3.764-9.087 9.326-9.087 5.422 0 8.95 3.662 8.95 9.798v.27zm3.563-6.477c-1.9 0-3.088 1.052-3.423 3.156h6.783c-.21-1.932-1.6-3.156-3.36-3.156m12.577-3.049h5.562v3.932c1.084-2.78 3.152-4.309 5.728-4.309a18 18 0 011.663.105l-.58 5.358c-.71-.207-1.357-.338-2.03-.338-2.782 0-4.481 1.693-4.481 5.052v6.913h-5.862V174.9" fill="#00adef" fill-rule="evenodd"/></svg>